# xmcd
#
# Track frame offsets:
#	150
#	19471
#	45847
#	65097
#	85381
#	109279
#	124514
#	133193
#	147767
#	161517
#	174427
#	188896
#
# Disc length: 2768 seconds
#
# Revision: 0
# Processed by: cddbd v1.5.2PL0 Copyright (c) Steve Scherf et al.
# Submitted via: EZCDAudioConverter 7.1.1.1
#
DISCID=a60ace0c
DTITLE=악어들 - 1집 물고기였으면
DYEAR=2017
DGENRE=
TTITLE0=여우소주
TTITLE1=물고기였으면
TTITLE2=극장전
TTITLE3=아거기아거가
TTITLE4=벌레
TTITLE5=밀실
TTITLE6=아무도 없는 밤에
TTITLE7=겨울빛
TTITLE8=보초를 서다가 사랑에 빠졌네
TTITLE9=아직도 난 널
TTITLE10=나는 오늘 밤에 울거야
TTITLE11=아침
EXTD=
EXTT0=
EXTT1=
EXTT2=
EXTT3=
EXTT4=
EXTT5=
EXTT6=
EXTT7=
EXTT8=
EXTT9=
EXTT10=
EXTT11=
PLAYORDER=
